<svg width="32" height="32" viewBox="0 0 150 150" fill="none" xmlns="http://www.w3.org/2000/svg">
<path d="M74.8576 142.647C72.4373 142.486 71.6844 139.527 71.6844 139.527C70.4471 135.332 66.7898 132.374 66.7898 132.374C60.2277 126.296 33.6578 109.946 33.6578 109.946C25.4286 106.234 7.8407 100.748 7.8407 100.748C3.96814 98.812 3 94.294 3 94.294C4.61357 94.4553 11.5519 91.5509 11.5519 91.5509L3 81.5468L11.3905 78.481L3 70.8973L12.3587 65.2498C6.22713 18.295 47.5344 7 47.5344 7C47.5344 7 44.4687 51.5344 50.1162 56.5365C50.1162 56.5365 61.6803 47.6619 74.8576 47.1778" fill="url(#paint0_linear_104_14)"/>
<path d="M74.6423 142.647C77.0627 142.486 77.8159 139.527 77.8159 139.527C79.0525 135.332 82.7102 132.374 82.7102 132.374C89.2722 126.297 115.842 109.946 115.842 109.946C124.071 106.234 141.659 100.748 141.659 100.748C145.532 98.812 146.5 94.294 146.5 94.294C144.886 94.4553 137.948 91.5509 137.948 91.5509L146.5 81.5468L138.109 78.481L146.5 70.8973L137.141 65.2498C143.273 18.295 101.966 7 101.966 7C101.966 7 105.031 51.5344 99.3838 56.5365C99.3838 56.5365 87.8197 47.6619 74.6423 47.1778" fill="url(#paint1_linear_104_14)"/>
<path d="M108.164 78.1583C108.002 77.9715 107.636 78.0305 107.434 78.0676C106.394 78.2606 105.47 79.1119 104.807 79.8803C103.778 81.0734 103.033 82.5566 102.087 83.8226C101.337 84.8259 100.471 85.7463 99.558 86.6027C97.3029 88.7191 94.344 90.0993 91.1949 89.9835C88.993 89.9025 86.7276 88.8175 84.9285 87.5977C84.9285 87.5977 89.4868 77.2305 104.614 77.2708C104.614 77.2708 107.075 76.9078 108.164 78.1583Z" fill="url(#paint2_linear_104_14)"/>
<path d="M45.0647 78.3051C45.2273 78.1183 45.5933 78.1773 45.7947 78.2145C46.8348 78.4074 47.759 79.2587 48.4216 80.0271C49.4504 81.2202 50.1955 82.7034 51.142 83.9694C51.892 84.9727 52.7579 85.8931 53.6708 86.7496C55.9259 88.8659 58.8849 90.2462 62.0339 90.1303C64.2358 90.0493 66.5013 88.9644 68.3004 87.7445C68.3004 87.7445 63.7421 77.3773 48.6149 77.4177C48.6145 77.4177 46.1539 77.0546 45.0647 78.3051Z" fill="url(#paint3_linear_104_14)"/>
<defs>
<linearGradient id="paint0_linear_104_14" x1="3" y1="7" x2="74.8576" y2="7" gradientUnits="userSpaceOnUse">
<stop stop-color="#7F00FF"/>
<stop offset="1" stop-color="#E100FF"/>
</linearGradient>
<linearGradient id="paint1_linear_104_14" x1="74.6423" y1="7" x2="146.5" y2="7" gradientUnits="userSpaceOnUse">
<stop stop-color="#7F00FF"/>
<stop offset="1" stop-color="#E100FF"/>
</linearGradient>
<linearGradient id="paint2_linear_104_14" x1="84.9285" y1="77.2218" x2="108.164" y2="77.2218" gradientUnits="userSpaceOnUse">
<stop stop-color="#7F00FF"/>
<stop offset="1" stop-color="#E100FF"/>
</linearGradient>
<linearGradient id="paint3_linear_104_14" x1="45.0647" y1="77.3687" x2="68.3004" y2="77.3687" gradientUnits="userSpaceOnUse">
<stop stop-color="#7F00FF"/>
<stop offset="1" stop-color="#E100FF"/>
</linearGradient>
</defs>
</svg>
